<svg width="23" height="23" viewBox="0 0 23 23" fill="none" xmlns="http://www.w3.org/2000/svg">
<path d="M15.1743 3.59735C13.4109 3.59735 11.9041 4.8543 11.0762 5.72087C10.2483 4.8543 8.74486 3.59735 6.98228 3.59735C3.94423 3.59735 1.82324 5.71498 1.82324 8.74629C1.82324 12.0864 4.45745 14.2452 7.00583 16.3334C8.20894 17.3203 9.4541 18.34 10.409 19.4707C10.5697 19.66 10.8053 19.7694 11.0526 19.7694H11.1014C11.3496 19.7694 11.5844 19.6592 11.7442 19.4707C12.7008 18.34 13.9451 17.3194 15.1491 16.3334C17.6966 14.2461 20.3325 12.0872 20.3325 8.74629C20.3325 5.71498 18.2115 3.59735 15.1743 3.59735Z" fill="#7D6B7D"/>
</svg>
