<svg xmlns="http://www.w3.org/2000/svg" width="87" height="87" viewBox="0 0 87 87" fill="none">
<circle cx="43" cy="43" r="38" fill="#be0006"/>
<path d="M53.8377 59.7058C53.5649 59.7069 53.2958 59.6426 53.053 59.5182L44.353 54.9635L35.653 59.5182C35.3705 59.6667 35.052 59.733 34.7336 59.7096C34.4153 59.6861 34.11 59.5738 33.8523 59.3855C33.5946 59.1971 33.395 58.9402 33.276 58.644C33.1571 58.3478 33.1236 58.0242 33.1795 57.7099L34.8853 48.1058L27.8571 41.2823C27.6378 41.0635 27.4823 40.7891 27.4071 40.4885C27.332 40.188 27.3401 39.8727 27.4306 39.5764C27.5295 39.2732 27.7114 39.0038 27.9556 38.7988C28.1999 38.5938 28.4967 38.4613 28.8124 38.4164L38.5359 37.0005L42.8177 28.2494C42.9574 27.9609 43.1755 27.7177 43.447 27.5475C43.7185 27.3773 44.0325 27.287 44.353 27.287C44.6734 27.287 44.9874 27.3773 45.259 27.5475C45.5305 27.7177 45.7486 27.9609 45.8883 28.2494L50.2212 36.9835L59.9447 38.3994C60.2605 38.4442 60.5573 38.5767 60.8015 38.7817C61.0458 38.9868 61.2276 39.2562 61.3265 39.5594C61.417 39.8556 61.4251 40.1709 61.35 40.4715C61.2749 40.772 61.1193 41.0464 60.9 41.2652L53.8718 48.0888L55.5777 57.6929C55.6386 58.0127 55.6067 58.3433 55.4858 58.6455C55.3649 58.9478 55.16 59.2092 54.8953 59.3988C54.5864 59.6152 54.2145 59.7232 53.8377 59.7058Z" fill="white"/>
</svg>