<svg xmlns="http://www.w3.org/2000/svg" width="76" height="76" viewBox="0 0 76 76" fill="none">
<circle cx="38" cy="38" r="38" fill="#be0006"/>
<path d="M38.4786 17.2499C26.7486 17.2499 17.2499 26.7699 17.2499 38.4999C17.2499 50.2299 26.7486 59.7499 38.4786 59.7499C50.2299 59.7499 59.7499 50.2299 59.7499 38.4999C59.7499 26.7699 50.2299 17.2499 38.4786 17.2499ZM46.9999 46.9999C46.8033 47.1969 46.5698 47.3532 46.3127 47.4599C46.0556 47.5665 45.7801 47.6214 45.5018 47.6214C45.2234 47.6214 44.9479 47.5665 44.6908 47.4599C44.4337 47.3532 44.2002 47.1969 44.0036 46.9999L37.0124 40.0087C36.8116 39.8119 36.6519 39.5772 36.5424 39.3182C36.433 39.0592 36.376 38.7811 36.3749 38.4999V29.9999C36.3749 28.8312 37.3311 27.8749 38.4999 27.8749C39.6686 27.8749 40.6249 28.8312 40.6249 29.9999V37.6287L46.9999 44.0037C47.8286 44.8324 47.8286 46.1712 46.9999 46.9999Z" fill="white"/>
</svg>