<svg width="23" height="23" viewBox="0 0 23 23" fill="none" xmlns="http://www.w3.org/2000/svg">
<g clip-path="url(#clip0_1_989)">
<path d="M17.422 14.9085C17.0128 14.91 16.6081 14.9943 16.2322 15.1561C15.8563 15.3179 15.5169 15.5541 15.2346 15.8503L7.82759 12.1438C8.00979 11.5913 8.00979 10.9949 7.82759 10.4424L15.2467 6.66904C15.7781 7.22905 16.4988 7.57146 17.2686 7.62973C18.0384 7.688 18.8024 7.45797 19.412 6.98433C20.0217 6.5107 20.4335 5.82731 20.5673 5.06699C20.7012 4.30666 20.5476 3.52373 20.1363 2.87036C19.7251 2.21699 19.0856 1.73986 18.3422 1.53172C17.5988 1.32357 16.8045 1.39927 16.1138 1.74411C15.4231 2.08895 14.8852 2.67829 14.6048 3.39758C14.3244 4.11687 14.3215 4.91473 14.5966 5.63608L7.25034 9.37298C6.85359 8.88776 6.31648 8.53712 5.71263 8.36914C5.10878 8.20115 4.46775 8.22404 3.87742 8.43466C3.28709 8.64529 2.77635 9.03334 2.41522 9.54562C2.05408 10.0579 1.86023 10.6693 1.86023 11.2961C1.86023 11.9229 2.05408 12.5343 2.41522 13.0466C2.77635 13.5589 3.28709 13.947 3.87742 14.1576C4.46775 14.3682 5.10878 14.3911 5.71263 14.2231C6.31648 14.0551 6.85359 13.7045 7.25034 13.2193L14.5783 16.9076C14.4545 17.24 14.3907 17.5918 14.39 17.9466C14.39 18.5475 14.5681 19.1349 14.902 19.6345C15.2358 20.1341 15.7103 20.5235 16.2655 20.7535C16.8206 20.9834 17.4315 21.0436 18.0208 20.9264C18.6101 20.8091 19.1515 20.5198 19.5764 20.0949C20.0013 19.67 20.2906 19.1287 20.4079 18.5393C20.5251 17.95 20.4649 17.3391 20.235 16.784C20.005 16.2288 19.6156 15.7543 19.116 15.4205C18.6164 15.0866 18.029 14.9085 17.4281 14.9085H17.422Z" fill="#7D6B7D"/>
</g>
<defs>
<clipPath id="clip0_1_989">
<rect width="21.8746" height="21.8746" fill="white" transform="translate(0.694092 0.325439)"/>
</clipPath>
</defs>
</svg>
