<svg width="28" height="29" viewBox="0 0 28 29" fill="none" xmlns="http://www.w3.org/2000/svg">
<path d="M6.99626 18.1932C9.16707 18.1932 10.9268 16.4334 10.9268 14.2626C10.9268 12.0918 9.16707 10.332 6.99626 10.332C4.82546 10.332 3.06567 12.0918 3.06567 14.2626C3.06567 16.4334 4.82546 18.1932 6.99626 18.1932Z" stroke="#3C4852" stroke-width="1.82288" stroke-linecap="round" stroke-linejoin="round"/>
<path d="M20.9717 25.1809C23.1425 25.1809 24.9023 23.4211 24.9023 21.2503C24.9023 19.0795 23.1425 17.3197 20.9717 17.3197C18.8009 17.3197 17.0411 19.0795 17.0411 21.2503C17.0411 23.4211 18.8009 25.1809 20.9717 25.1809Z" stroke="#3C4852" stroke-width="1.82288" stroke-linecap="round" stroke-linejoin="round"/>
<path d="M20.9717 11.2055C23.1425 11.2055 24.9023 9.44569 24.9023 7.27489C24.9023 5.10408 23.1425 3.3443 20.9717 3.3443C18.8009 3.3443 17.0411 5.10408 17.0411 7.27489C17.0411 9.44569 18.8009 11.2055 20.9717 11.2055Z" stroke="#3C4852" stroke-width="1.82288" stroke-linecap="round" stroke-linejoin="round"/>
<path d="M10.4901 12.5156L17.4778 9.02179M10.4901 16.0095L17.4778 19.5034L10.4901 16.0095Z" stroke="#3C4852" stroke-width="1.82288" stroke-linecap="round" stroke-linejoin="round"/>
</svg>
