<svg xmlns="http://www.w3.org/2000/svg" width="76" height="76" viewBox="0 0 76 76" fill="none" transform="matrix(1, 0, 0, 1, 0, 0)">
<circle cx="38" cy="38" r="38" fill="#3c4852"/>
<path fill-rule="evenodd" clip-rule="evenodd" d="M44.42 21.6693C44.2735 21.3758 44.0662 21.1168 43.8118 20.9096C43.5575 20.7024 43.262 20.5517 42.945 20.4676C42.6279 20.3834 42.2966 20.3676 41.973 20.4214C41.6494 20.4751 41.3409 20.5971 41.0681 20.7793C40.2706 21.311 39.6488 22.0692 39.168 22.8135C38.6733 23.5764 38.2364 24.4617 37.8503 25.3933C37.0783 27.2518 36.431 29.4802 35.9086 31.7133C35.2768 34.4421 34.8036 37.2053 34.4916 39.9889C33.551 39.3825 32.7953 38.5293 32.3071 37.5224C31.5489 35.9505 31.387 33.9763 31.387 31.3873C31.387 30.9302 31.2513 30.4834 30.9973 30.1033C30.7433 29.7233 30.3823 29.4271 29.96 29.2521C29.5376 29.0772 29.0729 29.0314 28.6246 29.1206C28.1762 29.2097 27.7644 29.4298 27.4411 29.753C25.9366 31.2543 24.7435 33.0379 23.9303 35.0016C23.1171 36.9652 22.6997 39.0702 22.7023 41.1955C22.7025 43.8565 23.3589 46.4763 24.6134 48.823C25.8679 51.1697 27.6818 53.1708 29.8943 54.6491C32.1069 56.1273 34.6499 57.0371 37.298 57.2979C39.9462 57.5586 42.6177 57.1623 45.0761 56.1439C47.5345 55.1256 49.7038 53.5167 51.392 51.4598C53.0801 49.4028 54.2348 46.9613 54.754 44.3515C55.2732 41.7417 55.1407 39.0441 54.3684 36.4977C53.5961 33.9513 52.2077 31.6347 50.3262 29.753C48.9577 28.3868 48.0608 27.4761 47.2101 26.3619C46.371 25.2615 45.5365 23.9046 44.42 21.6693ZM43.7843 50.7194C42.8144 51.6881 41.5793 52.3476 40.2349 52.6146C38.8905 52.8817 37.497 52.7444 36.2306 52.22C34.9642 51.6956 33.8815 50.8077 33.1195 49.6684C32.3574 48.5291 31.95 47.1895 31.9488 45.8188C31.9488 45.8188 33.9807 46.9746 37.7278 46.9746C37.7278 44.663 38.8836 37.7281 40.6174 36.5723C41.7732 38.8839 42.4343 39.5612 43.7866 40.9158C44.4316 41.5589 44.9432 42.3231 45.2919 43.1645C45.6406 44.0059 45.8196 44.908 45.8185 45.8188C45.8196 46.7296 45.6406 47.6316 45.2919 48.4731C44.9432 49.3145 44.4316 50.0787 43.7866 50.7217L43.7843 50.7194Z" fill="#ffffff"/>
</svg>